{
	"asset":{
		"generator":"Khronos glTF Blender I/O v4.3.47",
		"version":"2.0"
	},
	"extensionsUsed":[
		"KHR_materials_specular"
	],
	"scene":0,
	"scenes":[
		{
			"name":"Scene",
			"nodes":[
				0,
				1,
				2,
				3,
				4,
				5
			]
		}
	],
	"nodes":[
		{
			"mesh":0,
			"name":"Text.002",
			"rotation":[
				0.7071068286895752,
				0,
				0,
				0.7071068286895752
			],
			"scale":[
				0.06885713338851929,
				0.06885713338851929,
				0.06885713338851929
			],
			"translation":[
				-0.004327623173594475,
				0.26975423097610474,
				0.1147063821554184
			]
		},
		{
			"mesh":1,
			"name":"Text.001",
			"rotation":[
				0.7071068286895752,
				0,
				0,
				0.7071068286895752
			],
			"scale":[
				0.13112235069274902,
				0.13112235069274902,
				0.13112235069274902
			],
			"translation":[
				-0.12736770510673523,
				0.42900076508522034,
				0.11501491069793701
			]
		},
		{
			"mesh":2,
			"name":"Text",
			"scale":[
				0.05522662028670311,
				0.05522662028670311,
				0.05522662028670311
			],
			"translation":[
				-0.07300930470228195,
				1.3387383222579956,
				0.01656617410480976
			]
		},
		{
			"mesh":3,
			"name":"Plane",
			"scale":[
				5.796611785888672,
				5.796611785888672,
				5.796611785888672
			],
			"translation":[
				0.0822625681757927,
				0.03359116241335869,
				-1.4246673583984375
			]
		},
		{
			"mesh":4,
			"name":"Cylinder",
			"scale":[
				-0.08038400113582611,
				-0.1629270315170288,
				-0.08038400113582611
			],
			"translation":[
				-0.006306050810962915,
				1.1749441623687744,
				-0.0013830694369971752
			]
		},
		{
			"mesh":5,
			"name":"Cube.001",
			"scale":[
				0.2786506712436676,
				0.49933695793151855,
				0.11545069515705109
			],
			"translation":[
				-0.004538537468761206,
				0.5357416272163391,
				-0.0009954110719263554
			]
		}
	],
	"materials":[
		{
			"doubleSided":true,
			"extensions":{
				"KHR_materials_specular":{
					"specularColorFactor":[
						2.0,
						2.0,
						2.0
					]
				}
			},
			"name":"Material.001",
			"pbrMetallicRoughness":{
				"baseColorFactor":[
					0.800000011920929,
					0.800000011920929,
					0.800000011920929,
					1
				],
				"roughnessFactor":0.5527864098548889
			}
		},
		{
			"doubleSided":true,
			"extensions":{
				"KHR_materials_specular":{
					"specularColorFactor":[
						2.0,
						2.0,
						2.0
					]
				}
			},
			"name":"Material.002",
			"pbrMetallicRoughness":{
				"baseColorFactor":[
					0.800000011920929,
					0.800000011920929,
					0.800000011920929,
					1
				],
				"roughnessFactor":0.5527864098548889
			}
		},
		{
			"doubleSided":true,
			"extensions":{
				"KHR_materials_specular":{
					"specularColorFactor":[
						2.0,
						2.0,
						2.0
					]
				}
			},
			"name":"Material.003",
			"pbrMetallicRoughness":{
				"baseColorFactor":[
					0.800000011920929,
					0.800000011920929,
					0.800000011920929,
					1
				],
				"roughnessFactor":0.5527864098548889
			}
		}
	],
	"meshes":[
		{
			"name":"Mesh",
			"primitives":[
				{
					"attributes":{
						"POSITION":0,
						"NORMAL":1
					},
					"indices":2,
					"material":0
				}
			]
		},
		{
			"name":"Mesh.001",
			"primitives":[
				{
					"attributes":{
						"POSITION":3,
						"NORMAL":4
					},
					"indices":5,
					"material":0
				}
			]
		},
		{
			"name":"Mesh.002",
			"primitives":[
				{
					"attributes":{
						"POSITION":6,
						"NORMAL":7
					},
					"indices":8,
					"material":1
				}
			]
		},
		{
			"name":"Plane",
			"primitives":[
				{
					"attributes":{
						"POSITION":9,
						"NORMAL":10
					},
					"indices":11
				}
			]
		},
		{
			"name":"Cylinder",
			"primitives":[
				{
					"attributes":{
						"POSITION":12,
						"NORMAL":13
					},
					"indices":14,
					"material":0
				}
			]
		},
		{
			"name":"Cube.001",
			"primitives":[
				{
					"attributes":{
						"POSITION":15,
						"NORMAL":16
					},
					"indices":17,
					"material":2
				}
			]
		}
	],
	"accessors":[
		{
			"bufferView":0,
			"componentType":5126,
			"count":1158,
			"max":[
				1.4998900890350342,
				0,
				1.474410057067871
			],
			"min":[
				-1.6625699996948242,
				0,
				-0.33859002590179443
			],
			"type":"VEC3"
		},
		{
			"bufferView":1,
			"componentType":5126,
			"count":1158,
			"type":"VEC3"
		},
		{
			"bufferView":2,
			"componentType":5123,
			"count":3396,
			"type":"SCALAR"
		},
		{
			"bufferView":3,
			"componentType":5126,
			"count":211,
			"max":[
				1.8182401657104492,
				0,
				0.005760000087320805
			],
			"min":[
				0,
				0,
				-0.44224002957344055
			],
			"type":"VEC3"
		},
		{
			"bufferView":4,
			"componentType":5126,
			"count":211,
			"type":"VEC3"
		},
		{
			"bufferView":5,
			"componentType":5123,
			"count":615,
			"type":"SCALAR"
		},
		{
			"bufferView":6,
			"componentType":5126,
			"count":5486,
			"max":[
				2.368030309677124,
				0.009999999776482582,
				0.017476821318268776
			],
			"min":[
				-0.015145077370107174,
				-0.009999999776482582,
				-0.5835362672805786
			],
			"type":"VEC3"
		},
		{
			"bufferView":7,
			"componentType":5126,
			"count":5486,
			"type":"VEC3"
		},
		{
			"bufferView":8,
			"componentType":5123,
			"count":29082,
			"type":"SCALAR"
		},
		{
			"bufferView":9,
			"componentType":5126,
			"count":4,
			"max":[
				1,
				0,
				1
			],
			"min":[
				-1,
				0,
				-1
			],
			"type":"VEC3"
		},
		{
			"bufferView":10,
			"componentType":5126,
			"count":4,
			"type":"VEC3"
		},
		{
			"bufferView":11,
			"componentType":5123,
			"count":6,
			"type":"SCALAR"
		},
		{
			"bufferView":12,
			"componentType":5126,
			"count":659749,
			"max":[
				0.9971292018890381,
				1,
				0.9971292018890381
			],
			"min":[
				-0.9971292018890381,
				-1,
				-0.9971292018890381
			],
			"type":"VEC3"
		},
		{
			"bufferView":13,
			"componentType":5126,
			"count":659749,
			"type":"VEC3"
		},
		{
			"bufferView":14,
			"componentType":5125,
			"count":1889652,
			"type":"SCALAR"
		},
		{
			"bufferView":15,
			"componentType":5126,
			"count":191261,
			"max":[
				1.0000003576278687,
				1,
				1.0000003576278687
			],
			"min":[
				-1.0000003576278687,
				-1,
				-1.000000238418579
			],
			"type":"VEC3"
		},
		{
			"bufferView":16,
			"componentType":5126,
			"count":191261,
			"type":"VEC3"
		},
		{
			"bufferView":17,
			"componentType":5125,
			"count":551124,
			"type":"SCALAR"
		}
	],
	"bufferViews":[
		{
			"buffer":0,
			"byteLength":13896,
			"byteOffset":0,
			"target":34962
		},
		{
			"buffer":0,
			"byteLength":13896,
			"byteOffset":13896,
			"target":34962
		},
		{
			"buffer":0,
			"byteLength":6792,
			"byteOffset":27792,
			"target":34963
		},
		{
			"buffer":0,
			"byteLength":2532,
			"byteOffset":34584,
			"target":34962
		},
		{
			"buffer":0,
			"byteLength":2532,
			"byteOffset":37116,
			"target":34962
		},
		{
			"buffer":0,
			"byteLength":1230,
			"byteOffset":39648,
			"target":34963
		},
		{
			"buffer":0,
			"byteLength":65832,
			"byteOffset":40880,
			"target":34962
		},
		{
			"buffer":0,
			"byteLength":65832,
			"byteOffset":106712,
			"target":34962
		},
		{
			"buffer":0,
			"byteLength":58164,
			"byteOffset":172544,
			"target":34963
		},
		{
			"buffer":0,
			"byteLength":48,
			"byteOffset":230708,
			"target":34962
		},
		{
			"buffer":0,
			"byteLength":48,
			"byteOffset":230756,
			"target":34962
		},
		{
			"buffer":0,
			"byteLength":12,
			"byteOffset":230804,
			"target":34963
		},
		{
			"buffer":0,
			"byteLength":7916988,
			"byteOffset":230816,
			"target":34962
		},
		{
			"buffer":0,
			"byteLength":7916988,
			"byteOffset":8147804,
			"target":34962
		},
		{
			"buffer":0,
			"byteLength":7558608,
			"byteOffset":16064792,
			"target":34963
		},
		{
			"buffer":0,
			"byteLength":2295132,
			"byteOffset":23623400,
			"target":34962
		},
		{
			"buffer":0,
			"byteLength":2295132,
			"byteOffset":25918532,
			"target":34962
		},
		{
			"buffer":0,
			"byteLength":2204496,
			"byteOffset":28213664,
			"target":34963
		}
	],
	"buffers":[
		{
			"byteLength":30418160,
			"uri":"untitled.bin"
		}
	]
}
